<?xml version="1.0" encoding="utf-8"?><!-- Uploaded to: SVG Repo, www.svgrepo.com, Generator: SVG Repo Mixer Tools -->
<svg fill="#000000" width="800px" height="800px" viewBox="0 0 24 24" id="airplane-3" data-name="Flat Color" xmlns="http://www.w3.org/2000/svg" class="icon flat-color"><path id="primary" d="M12.08,4.42,8.16,10H4a2,2,0,0,0,0,4H8.16l3.92,5.58a1,1,0,0,0,.81.42h.93a1,1,0,0,0,1-1.16L14,14h3.62l1.7,1.71A1.05,1.05,0,0,0,20,16h1a1,1,0,0,0,.89-1.45L20.62,12l1.27-2.55A1,1,0,0,0,21,8H20a1.05,1.05,0,0,0-.71.29L17.62,10H14l.81-4.84a1,1,0,0,0-1-1.16h-.93A1,1,0,0,0,12.08,4.42Z" style="fill: rgb(0, 0, 0);"></path></svg>